<?xml version="1.0" encoding="utf-8"?>
<!-- Generator: Adobe Illustrator 28.0.0, SVG Export Plug-In . SVG Version: 6.00 Build 0)  -->
<svg version="1.1" id="Layer_1" xmlns="http://www.w3.org/2000/svg" xmlns:xlink="http://www.w3.org/1999/xlink" x="0px" y="0px"
	 viewBox="0 0 542.6 499.2" style="enable-background:new 0 0 542.6 499.2;" xml:space="preserve">
<style type="text/css">
	.st0{fill:none;stroke:#000000;stroke-width:2;stroke-miterlimit:10;}
	.st1{fill:#C61212;}
	.st2{fill:#1155C9;}
	.st3{fill:#F15A24;}
	.st4{fill:#666666;}
	.st5{fill:#FFFFFF;}
</style>
<g>
	<g>
		<path class="st2" d="M189.9,189.8c0,22.3-6.4,40.1-19.2,53.2c-12.8,13.1-30.5,19.7-53.1,19.7c-22.5,0-40.2-6.6-53-19.7
			c-12.8-13.1-19.2-30.9-19.2-53.2c0-22.5,6.4-40.3,19.2-53.4c12.8-13.1,30.4-19.6,53-19.6c22.4,0,40.1,6.5,53,19.6
			C183.4,149.5,189.9,167.3,189.9,189.8z M142,225.2c3.5-4.3,6.1-9.3,7.8-15.1c1.7-5.8,2.5-12.6,2.5-20.5c0-8.4-1-15.6-2.9-21.4
			c-1.9-5.9-4.5-10.7-7.6-14.3c-3.2-3.8-6.9-6.5-11.1-8.2c-4.2-1.7-8.5-2.5-13-2.5c-4.6,0-8.9,0.8-12.9,2.4c-4,1.6-7.8,4.3-11.1,8.1
			c-3.1,3.5-5.7,8.4-7.7,14.5c-2,6.2-3,13.3-3,21.5c0,8.3,1,15.4,2.9,21.3c1.9,5.9,4.4,10.6,7.6,14.3c3.1,3.7,6.8,6.4,11,8.2
			c4.2,1.8,8.6,2.6,13.3,2.6s9.1-0.9,13.3-2.7C135.2,231.8,138.8,229,142,225.2z"/>
		<path class="st2" d="M333,163.9c0,6.3-1.1,12.4-3.3,18.4c-2.2,6-5.3,11-9.4,15.1c-5.6,5.5-11.8,9.7-18.7,12.5
			c-6.9,2.8-15.4,4.2-25.6,4.2h-22.5v45.6h-36.1V119.7h59.5c8.9,0,16.4,0.8,22.5,2.3c6.1,1.5,11.5,3.8,16.2,6.9
			c5.6,3.7,10,8.4,12.9,14.2C331.5,148.9,333,155.8,333,163.9z M295.7,164.7c0-3.9-1.1-7.3-3.2-10.2c-2.1-2.8-4.6-4.8-7.4-6
			c-3.8-1.5-7.4-2.3-11-2.5c-3.6-0.2-8.3-0.2-14.3-0.2h-6.2v41.9h10.3c6.1,0,11.2-0.4,15.2-1.1c4-0.8,7.3-2.3,10-4.5
			c2.3-2,4-4.4,5-7.2C295.2,172.1,295.7,168.7,295.7,164.7z"/>
		<path class="st2" d="M494.8,189.8c0,22.3-6.4,40.1-19.2,53.2c-12.8,13.1-30.5,19.7-53.1,19.7c-22.5,0-40.2-6.6-53-19.7
			c-12.8-13.1-19.2-30.9-19.2-53.2c0-22.5,6.4-40.3,19.2-53.4c12.8-13.1,30.4-19.6,53-19.6c22.4,0,40.1,6.5,53,19.6
			C488.4,149.5,494.8,167.3,494.8,189.8z M446.9,225.2c3.5-4.3,6.1-9.3,7.8-15.1c1.7-5.8,2.5-12.6,2.5-20.5c0-8.4-1-15.6-2.9-21.4
			c-1.9-5.9-4.5-10.7-7.6-14.3c-3.2-3.8-6.9-6.5-11.1-8.2c-4.2-1.7-8.5-2.5-13-2.5c-4.6,0-8.9,0.8-12.9,2.4c-4,1.6-7.8,4.3-11.1,8.1
			c-3.1,3.5-5.7,8.4-7.7,14.5c-2,6.2-3,13.3-3,21.5c0,8.3,1,15.4,2.9,21.3c1.9,5.9,4.4,10.6,7.6,14.3c3.1,3.7,6.8,6.4,11,8.2
			c4.2,1.8,8.6,2.6,13.3,2.6s9.1-0.9,13.3-2.7C440.1,231.8,443.8,229,446.9,225.2z"/>
	</g>
	<g>
		<path class="st2" d="M189,402.9H96.4V274.8H189v24.8h-59.8v22.1h55.5v24.8h-55.5v31.6H189V402.9z"/>
		<path class="st2" d="M332.8,274.8l-46.7,128.1h-37l-46.7-128.1h34.7l31,89.9l31-89.9H332.8z"/>
		<path class="st2" d="M443.9,402.9h-92.6V274.8h92.6v24.8h-59.8v22.1h55.5v24.8h-55.5v31.6h59.8V402.9z"/>
	</g>
</g>
<g>
	<polygon class="st1" points="263.4,114.3 208.4,142.6 194.8,48.5 	"/>
	<g>
		<path class="st5" d="M206.8,60.1c-2.4,5.6-5.2,12.1-7.8,18.1l1.5,10.5c3-7.1,7-16.5,10.5-24.6L206.8,60.1z"/>
		<path class="st5" d="M228.3,132.3l7.7-3.9c4-9.3,8.5-19.8,12.3-28.6l-4.2-4.1C239.3,106.8,233.1,121.1,228.3,132.3z"/>
		<path class="st5" d="M228.9,81.2l-4.2-4.1c-2.5,5.6-11.7,26.8-19.3,44.6l1.5,10.5C214.2,114.9,225,90,228.9,81.2z"/>
	</g>
</g>
</svg>
