<?xml version="1.0" standalone="no"?>
<!DOCTYPE svg PUBLIC "-//W3C//DTD SVG 20010904//EN"
 "http://www.w3.org/TR/2001/REC-SVG-20010904/DTD/svg10.dtd">
<svg version="1.0" xmlns="http://www.w3.org/2000/svg"
 width="3240.000000pt" height="3240.000000pt" viewBox="0 0 3240.000000 3240.000000"
 preserveAspectRatio="xMidYMid meet">
<metadata>
Created by potrace 1.14, written by Peter Selinger 2001-2017
</metadata>
<g transform="translate(0.000000,3240.000000) scale(0.100000,-0.100000)"
fill="#000000" stroke="none">
<path d="M15718 32395 c-2 -1 -84 -6 -183 -9 -184 -7 -236 -10 -410 -21 -55
-4 -125 -9 -155 -10 -30 -2 -80 -6 -110 -9 -30 -3 -84 -8 -120 -11 -36 -4 -87
-8 -115 -11 -27 -3 -72 -7 -100 -9 -27 -3 -66 -7 -85 -9 -19 -3 -64 -8 -100
-12 -36 -3 -73 -8 -82 -9 -9 -2 -44 -6 -77 -10 -33 -3 -68 -7 -78 -9 -10 -2
-45 -7 -78 -11 -32 -4 -67 -8 -76 -10 -9 -2 -40 -6 -70 -10 -30 -3 -61 -8 -69
-10 -8 -2 -35 -7 -60 -10 -47 -6 -290 -44 -325 -51 -11 -2 -31 -6 -45 -9 -14
-3 -38 -7 -55 -10 -16 -2 -40 -6 -51 -9 -12 -2 -37 -7 -55 -10 -49 -8 -77 -14
-239 -47 -80 -16 -157 -32 -172 -34 -16 -3 -58 -12 -95 -21 -38 -9 -80 -18
-95 -21 -20 -3 -486 -118 -638 -157 -98 -26 -629 -181 -660 -193 -8 -3 -20 -7
-25 -8 -53 -12 -661 -223 -770 -267 -27 -11 -54 -21 -60 -23 -5 -1 -23 -8 -40
-14 -16 -7 -73 -29 -125 -48 -52 -20 -99 -39 -105 -43 -5 -4 -28 -13 -50 -20
-22 -7 -51 -18 -65 -25 -14 -7 -56 -25 -95 -41 -38 -15 -88 -35 -110 -45 -371
-162 -453 -199 -655 -297 -63 -30 -117 -56 -120 -57 -9 -2 -352 -176 -440
-223 -82 -43 -122 -65 -247 -133 -197 -107 -498 -282 -501 -291 -2 -4 -8 -8
-12 -8 -32 0 -990 -622 -1075 -697 -6 -6 -24 -18 -40 -29 -17 -10 -51 -34 -76
-54 -25 -19 -56 -42 -69 -50 -40 -27 -501 -378 -510 -389 -3 -4 -50 -42 -105
-85 -85 -68 -316 -259 -351 -291 -6 -5 -35 -31 -65 -57 -84 -72 -99 -85 -173
-151 -38 -34 -79 -70 -90 -80 -314 -275 -965 -931 -1265 -1276 -9 -10 -41 -47
-71 -81 -30 -35 -64 -74 -75 -86 -43 -47 -73 -83 -164 -194 -52 -63 -97 -117
-101 -120 -3 -3 -21 -25 -40 -50 -19 -25 -45 -56 -56 -70 -25 -28 -106 -131
-144 -180 -14 -18 -45 -58 -69 -89 -77 -99 -211 -280 -358 -486 -79 -110 -146
-204 -150 -210 -24 -31 -293 -441 -365 -555 -147 -234 -188 -301 -188 -305 0
-3 -20 -35 -44 -73 -24 -38 -47 -78 -50 -90 -4 -12 -12 -22 -17 -22 -5 0 -9
-4 -9 -9 0 -6 -15 -36 -34 -68 -77 -134 -227 -404 -240 -433 -6 -14 -13 -27
-16 -30 -10 -10 -278 -543 -339 -675 -18 -38 -43 -92 -56 -120 -289 -619 -565
-1335 -771 -2000 -88 -286 -258 -909 -299 -1095 -2 -8 -10 -49 -19 -90 -9 -41
-20 -91 -25 -110 -5 -19 -12 -48 -15 -65 -3 -16 -7 -41 -10 -55 -3 -14 -8 -34
-10 -45 -2 -11 -13 -65 -24 -120 -12 -55 -26 -127 -32 -160 -6 -33 -20 -107
-31 -165 -11 -58 -22 -121 -25 -140 -3 -19 -12 -73 -20 -120 -9 -47 -16 -92
-16 -100 0 -8 -4 -33 -8 -55 -5 -22 -11 -65 -15 -95 -3 -30 -10 -80 -15 -110
-11 -66 -16 -106 -26 -185 -3 -33 -8 -68 -10 -77 -1 -9 -6 -48 -9 -85 -4 -37
-9 -77 -11 -88 -2 -11 -6 -47 -9 -80 -3 -33 -8 -76 -10 -95 -2 -19 -7 -66 -10
-105 -3 -38 -8 -86 -10 -105 -3 -19 -7 -71 -10 -115 -3 -44 -8 -102 -10 -130
-29 -361 -40 -687 -40 -1215 1 -541 9 -804 40 -1210 2 -30 7 -91 10 -136 3
-44 8 -94 10 -112 2 -17 7 -67 10 -112 3 -44 8 -88 10 -98 2 -10 6 -52 10 -93
7 -75 11 -116 20 -179 3 -19 7 -54 10 -77 3 -24 7 -61 10 -83 3 -22 7 -58 10
-81 3 -23 7 -53 9 -68 3 -14 8 -46 11 -71 6 -42 28 -193 41 -270 5 -31 26
-156 39 -235 3 -16 22 -113 41 -215 20 -102 38 -196 40 -210 5 -30 41 -196 57
-265 6 -27 12 -52 12 -55 52 -247 208 -838 303 -1150 86 -279 261 -798 313
-925 7 -16 13 -35 14 -41 4 -19 214 -545 241 -602 13 -29 24 -55 24 -57 0 -2
14 -34 30 -70 17 -36 30 -67 30 -70 0 -25 357 -769 484 -1010 135 -254 162
-304 183 -337 13 -21 23 -40 23 -42 0 -3 29 -55 65 -117 36 -61 65 -113 65
-114 0 -5 262 -439 290 -480 15 -22 29 -44 31 -50 9 -22 353 -542 398 -601 9
-12 22 -30 29 -40 135 -202 622 -845 749 -991 16 -17 35 -40 43 -50 47 -57
105 -129 110 -133 3 -3 61 -70 129 -149 68 -79 140 -162 160 -184 20 -22 45
-50 56 -62 191 -215 601 -637 846 -870 110 -105 317 -297 353 -328 12 -10 50
-44 85 -75 78 -70 92 -82 160 -140 29 -26 63 -55 75 -65 11 -11 41 -35 65 -55
24 -21 49 -42 55 -47 6 -6 72 -60 146 -120 74 -60 140 -114 146 -120 6 -5 23
-19 38 -30 16 -11 33 -25 40 -30 56 -52 536 -409 731 -544 66 -46 136 -95 155
-108 19 -14 121 -81 225 -150 105 -69 202 -134 217 -144 15 -10 30 -19 34 -19
4 0 21 -11 38 -24 30 -23 483 -296 581 -351 28 -15 100 -55 160 -90 61 -34
155 -86 210 -115 55 -29 123 -65 150 -80 123 -67 737 -370 751 -370 2 0 47
-21 101 -46 129 -60 522 -227 693 -293 74 -29 149 -59 165 -66 81 -35 468
-172 690 -246 138 -45 257 -84 265 -87 8 -3 20 -6 25 -8 6 -2 93 -28 195 -59
145 -44 474 -136 570 -160 8 -2 89 -22 180 -45 91 -22 197 -48 235 -56 39 -9
77 -17 85 -19 8 -2 47 -11 85 -19 39 -8 81 -17 95 -20 27 -6 113 -24 145 -30
11 -3 52 -11 90 -19 39 -9 84 -17 100 -20 29 -5 124 -22 175 -32 45 -9 334
-57 360 -60 14 -2 72 -11 130 -19 58 -9 119 -18 135 -21 45 -6 263 -34 320
-40 28 -3 64 -7 80 -10 17 -2 57 -7 90 -10 33 -3 79 -8 103 -10 23 -3 61 -7
85 -10 23 -2 71 -7 107 -9 36 -3 94 -8 130 -11 495 -40 750 -50 1340 -50 425
0 717 7 924 20 312 21 479 33 536 40 31 4 76 8 210 20 78 7 166 16 190 20 14
2 48 6 75 9 28 3 86 11 130 16 170 22 224 30 255 35 14 2 45 7 70 11 25 3 54
7 65 9 11 2 54 8 95 14 41 6 113 18 160 26 47 8 99 17 115 20 17 3 41 8 55 10
42 9 66 13 101 19 19 3 45 8 59 11 63 12 127 25 150 29 14 2 58 12 97 20 40 9
87 18 105 21 48 8 437 100 618 145 510 129 1223 352 1645 515 39 15 75 28 80
29 6 2 24 9 40 15 17 7 54 22 83 33 30 11 66 26 80 34 15 8 32 14 38 14 11 0
113 41 189 75 17 7 55 23 85 35 30 12 69 28 85 35 17 7 64 28 105 45 41 18
108 47 148 66 40 19 74 34 76 34 4 0 116 52 321 150 61 28 119 56 130 61 11 5
27 13 35 18 8 5 42 23 75 39 168 80 489 251 735 390 63 36 129 73 147 83 17
10 49 28 70 41 21 13 48 28 58 35 265 156 484 294 763 482 112 75 211 141 220
146 9 6 19 12 22 15 5 6 288 209 334 240 12 8 75 56 140 105 64 50 130 99 146
110 29 20 257 200 320 252 127 104 336 278 340 283 3 3 36 32 75 65 38 33 77
67 85 75 9 8 30 26 47 40 33 27 174 155 287 260 350 326 711 692 1011 1025 44
48 85 93 90 99 28 30 165 188 201 232 23 27 82 96 130 154 49 58 103 123 119
144 17 21 35 44 40 50 6 6 47 58 93 116 46 58 89 113 97 122 45 55 329 437
422 568 164 232 471 692 528 792 6 10 39 64 74 120 64 103 100 164 237 400 90
156 101 174 154 273 23 44 46 85 50 90 4 6 51 94 104 197 53 102 103 199 111
215 68 127 294 611 385 823 34 80 70 163 80 185 10 22 49 119 88 215 244 609
378 1005 597 1765 24 84 144 557 161 636 8 41 17 81 19 89 9 36 66 308 71 335
3 17 9 47 15 67 5 20 12 56 15 80 3 24 9 59 14 78 5 19 12 55 15 80 4 24 8 47
10 50 2 3 6 26 10 50 3 25 12 81 20 125 14 80 18 101 30 185 8 55 14 91 19
128 3 15 8 47 11 72 3 25 10 72 15 105 5 33 12 85 15 115 3 30 8 66 10 80 3
23 7 54 21 175 2 22 6 56 9 75 2 19 7 62 10 95 3 33 8 80 10 103 2 24 7 78 10
120 3 42 7 95 10 117 6 49 13 138 20 265 3 52 8 127 10 165 27 443 27 1387 0
1820 -22 345 -25 384 -40 545 -3 25 -7 74 -10 110 -3 36 -7 74 -9 85 -2 11 -7
56 -11 100 -4 44 -8 91 -10 105 -2 14 -6 50 -10 80 -3 30 -8 66 -10 80 -2 14
-6 45 -9 70 -10 81 -17 135 -21 160 -4 23 -16 104 -30 205 -3 22 -8 56 -11 75
-4 19 -8 46 -10 60 -2 14 -10 68 -19 120 -9 52 -18 109 -21 125 -2 17 -6 36
-9 44 -3 8 -8 30 -11 50 -3 20 -14 81 -24 136 -11 55 -22 115 -25 134 -3 19
-7 37 -9 40 -2 3 -7 22 -10 41 -32 201 -189 839 -310 1255 -1 6 -8 30 -15 55
-6 25 -16 56 -21 70 -5 14 -25 79 -45 145 -101 332 -271 816 -405 1150 -29 72
-61 153 -72 180 -27 67 -95 228 -124 293 -13 29 -24 54 -24 57 0 2 -13 32 -29
67 -16 35 -42 92 -58 128 -16 36 -45 99 -64 140 -44 96 -345 700 -402 806
-103 191 -183 334 -223 401 -24 40 -44 75 -44 77 0 7 -215 363 -315 521 -85
135 -371 568 -404 611 -9 12 -23 32 -31 44 -8 12 -31 44 -50 71 -19 27 -55 77
-80 111 -211 297 -732 959 -854 1085 -11 12 -25 28 -31 35 -10 14 -208 240
-235 268 -8 9 -58 63 -110 120 -275 299 -657 681 -941 941 -193 177 -212 194
-229 209 -9 8 -45 40 -80 70 -94 82 -101 89 -150 130 -25 21 -55 47 -68 58
-13 11 -42 35 -64 54 -23 18 -56 45 -73 59 -16 14 -41 34 -54 45 -13 10 -28
24 -35 29 -6 6 -34 28 -61 50 -28 22 -55 44 -62 50 -63 54 -493 380 -620 471
-345 245 -615 427 -893 601 -167 105 -514 314 -535 322 -5 2 -55 30 -110 61
-238 136 -450 249 -765 406 -164 81 -204 100 -455 216 -190 88 -536 235 -720
307 -88 35 -169 67 -180 71 -145 62 -631 232 -965 338 -267 85 -510 154 -790
227 -82 21 -472 115 -495 119 -16 3 -60 12 -96 20 -36 8 -77 17 -90 20 -25 6
-110 24 -144 30 -11 3 -77 16 -147 30 -69 14 -141 28 -160 31 -50 7 -140 23
-164 29 -12 2 -39 7 -60 10 -22 4 -52 9 -69 11 -16 3 -41 7 -55 9 -14 2 -41 7
-60 10 -19 3 -53 8 -75 11 -22 3 -69 10 -105 15 -36 6 -117 17 -180 25 -63 8
-128 17 -145 20 -16 2 -57 7 -90 10 -33 4 -71 8 -85 10 -14 2 -52 7 -85 10
-33 3 -80 8 -104 11 -25 3 -70 7 -100 10 -31 2 -76 6 -101 9 -25 3 -74 8 -110
10 -153 11 -228 16 -280 20 -30 2 -107 7 -170 11 -63 3 -146 8 -185 10 -81 5
-1192 13 -1197 9z"/>
</g>
</svg>
